<mxfile host="app.diagrams.net" modified="2021-03-21T21:05:18.915Z" agent="5.0 (Windows NT 10.0; Win64; x64) AppleWebKit/537.36 (KHTML, like Gecko) Chrome/89.0.4389.90 Safari/537.36" etag="lzx4gUDn-_J107zrmud9" version="14.4.9" type="github">
  <diagram id="7qTWdWtIOQ5nhJ8zLcDE" name="Page-1">
    <mxGraphModel dx="1332" dy="802" grid="0" gridSize="10" guides="1" tooltips="1" connect="1" arrows="1" fold="1" page="1" pageScale="1" pageWidth="850" pageHeight="1100" math="0" shadow="0">
      <root>
        <mxCell id="0" />
        <mxCell id="1" parent="0" />
        <mxCell id="G06zANGbgaWx_TJrOBEd-1" value="Pattern" style="shape=table;startSize=30;container=1;collapsible=1;childLayout=tableLayout;fixedRows=1;rowLines=0;fontStyle=1;align=center;resizeLast=1;" vertex="1" parent="1">
          <mxGeometry x="117" y="276" width="180" height="100" as="geometry" />
        </mxCell>
        <mxCell id="G06zANGbgaWx_TJrOBEd-2" value="" style="shape=partialRectangle;collapsible=0;dropTarget=0;pointerEvents=0;fillColor=none;top=0;left=0;bottom=1;right=0;points=[[0,0.5],[1,0.5]];portConstraint=eastwest;" vertex="1" parent="G06zANGbgaWx_TJrOBEd-1">
          <mxGeometry y="30" width="180" height="30" as="geometry" />
        </mxCell>
        <mxCell id="G06zANGbgaWx_TJrOBEd-3" value="PK" style="shape=partialRectangle;connectable=0;fillColor=none;top=0;left=0;bottom=0;right=0;fontStyle=1;overflow=hidden;" vertex="1" parent="G06zANGbgaWx_TJrOBEd-2">
          <mxGeometry width="30" height="30" as="geometry" />
        </mxCell>
        <mxCell id="G06zANGbgaWx_TJrOBEd-4" value="pattern_id" style="shape=partialRectangle;connectable=0;fillColor=none;top=0;left=0;bottom=0;right=0;align=left;spacingLeft=6;fontStyle=5;overflow=hidden;" vertex="1" parent="G06zANGbgaWx_TJrOBEd-2">
          <mxGeometry x="30" width="150" height="30" as="geometry" />
        </mxCell>
        <mxCell id="G06zANGbgaWx_TJrOBEd-5" value="" style="shape=partialRectangle;collapsible=0;dropTarget=0;pointerEvents=0;fillColor=none;top=0;left=0;bottom=0;right=0;points=[[0,0.5],[1,0.5]];portConstraint=eastwest;" vertex="1" parent="G06zANGbgaWx_TJrOBEd-1">
          <mxGeometry y="60" width="180" height="30" as="geometry" />
        </mxCell>
        <mxCell id="G06zANGbgaWx_TJrOBEd-6" value="" style="shape=partialRectangle;connectable=0;fillColor=none;top=0;left=0;bottom=0;right=0;editable=1;overflow=hidden;" vertex="1" parent="G06zANGbgaWx_TJrOBEd-5">
          <mxGeometry width="30" height="30" as="geometry" />
        </mxCell>
        <mxCell id="G06zANGbgaWx_TJrOBEd-7" value="PATTERN VARCHAR" style="shape=partialRectangle;connectable=0;fillColor=none;top=0;left=0;bottom=0;right=0;align=left;spacingLeft=6;overflow=hidden;" vertex="1" parent="G06zANGbgaWx_TJrOBEd-5">
          <mxGeometry x="30" width="150" height="30" as="geometry" />
        </mxCell>
        <mxCell id="G06zANGbgaWx_TJrOBEd-43" style="edgeStyle=orthogonalEdgeStyle;rounded=0;orthogonalLoop=1;jettySize=auto;html=1;entryX=0.411;entryY=0.02;entryDx=0;entryDy=0;entryPerimeter=0;endArrow=ERoneToMany;endFill=0;startArrow=ERone;startFill=0;" edge="1" parent="1" source="G06zANGbgaWx_TJrOBEd-14" target="G06zANGbgaWx_TJrOBEd-1">
          <mxGeometry relative="1" as="geometry" />
        </mxCell>
        <mxCell id="G06zANGbgaWx_TJrOBEd-14" value="Tags" style="shape=table;startSize=30;container=1;collapsible=1;childLayout=tableLayout;fixedRows=1;rowLines=0;fontStyle=1;align=center;resizeLast=1;" vertex="1" parent="1">
          <mxGeometry x="101" y="69" width="180" height="100" as="geometry" />
        </mxCell>
        <mxCell id="G06zANGbgaWx_TJrOBEd-15" value="" style="shape=partialRectangle;collapsible=0;dropTarget=0;pointerEvents=0;fillColor=none;top=0;left=0;bottom=1;right=0;points=[[0,0.5],[1,0.5]];portConstraint=eastwest;" vertex="1" parent="G06zANGbgaWx_TJrOBEd-14">
          <mxGeometry y="30" width="180" height="30" as="geometry" />
        </mxCell>
        <mxCell id="G06zANGbgaWx_TJrOBEd-16" value="PK" style="shape=partialRectangle;connectable=0;fillColor=none;top=0;left=0;bottom=0;right=0;fontStyle=1;overflow=hidden;" vertex="1" parent="G06zANGbgaWx_TJrOBEd-15">
          <mxGeometry width="30" height="30" as="geometry" />
        </mxCell>
        <mxCell id="G06zANGbgaWx_TJrOBEd-17" value="unique_id" style="shape=partialRectangle;connectable=0;fillColor=none;top=0;left=0;bottom=0;right=0;align=left;spacingLeft=6;fontStyle=5;overflow=hidden;" vertex="1" parent="G06zANGbgaWx_TJrOBEd-15">
          <mxGeometry x="30" width="150" height="30" as="geometry" />
        </mxCell>
        <mxCell id="G06zANGbgaWx_TJrOBEd-18" value="" style="shape=partialRectangle;collapsible=0;dropTarget=0;pointerEvents=0;fillColor=none;top=0;left=0;bottom=0;right=0;points=[[0,0.5],[1,0.5]];portConstraint=eastwest;" vertex="1" parent="G06zANGbgaWx_TJrOBEd-14">
          <mxGeometry y="60" width="180" height="30" as="geometry" />
        </mxCell>
        <mxCell id="G06zANGbgaWx_TJrOBEd-19" value="" style="shape=partialRectangle;connectable=0;fillColor=none;top=0;left=0;bottom=0;right=0;editable=1;overflow=hidden;" vertex="1" parent="G06zANGbgaWx_TJrOBEd-18">
          <mxGeometry width="30" height="30" as="geometry" />
        </mxCell>
        <mxCell id="G06zANGbgaWx_TJrOBEd-20" value="TAG VARCHAR" style="shape=partialRectangle;connectable=0;fillColor=none;top=0;left=0;bottom=0;right=0;align=left;spacingLeft=6;overflow=hidden;" vertex="1" parent="G06zANGbgaWx_TJrOBEd-18">
          <mxGeometry x="30" width="150" height="30" as="geometry" />
        </mxCell>
        <mxCell id="G06zANGbgaWx_TJrOBEd-21" value="Response" style="shape=table;startSize=30;container=1;collapsible=1;childLayout=tableLayout;fixedRows=1;rowLines=0;fontStyle=1;align=center;resizeLast=1;" vertex="1" parent="1">
          <mxGeometry x="594" y="268" width="180" height="100" as="geometry" />
        </mxCell>
        <mxCell id="G06zANGbgaWx_TJrOBEd-22" value="" style="shape=partialRectangle;collapsible=0;dropTarget=0;pointerEvents=0;fillColor=none;top=0;left=0;bottom=1;right=0;points=[[0,0.5],[1,0.5]];portConstraint=eastwest;" vertex="1" parent="G06zANGbgaWx_TJrOBEd-21">
          <mxGeometry y="30" width="180" height="30" as="geometry" />
        </mxCell>
        <mxCell id="G06zANGbgaWx_TJrOBEd-23" value="PK" style="shape=partialRectangle;connectable=0;fillColor=none;top=0;left=0;bottom=0;right=0;fontStyle=1;overflow=hidden;" vertex="1" parent="G06zANGbgaWx_TJrOBEd-22">
          <mxGeometry width="30" height="30" as="geometry" />
        </mxCell>
        <mxCell id="G06zANGbgaWx_TJrOBEd-24" value="response_id" style="shape=partialRectangle;connectable=0;fillColor=none;top=0;left=0;bottom=0;right=0;align=left;spacingLeft=6;fontStyle=5;overflow=hidden;" vertex="1" parent="G06zANGbgaWx_TJrOBEd-22">
          <mxGeometry x="30" width="150" height="30" as="geometry" />
        </mxCell>
        <mxCell id="G06zANGbgaWx_TJrOBEd-25" value="" style="shape=partialRectangle;collapsible=0;dropTarget=0;pointerEvents=0;fillColor=none;top=0;left=0;bottom=0;right=0;points=[[0,0.5],[1,0.5]];portConstraint=eastwest;" vertex="1" parent="G06zANGbgaWx_TJrOBEd-21">
          <mxGeometry y="60" width="180" height="30" as="geometry" />
        </mxCell>
        <mxCell id="G06zANGbgaWx_TJrOBEd-26" value="" style="shape=partialRectangle;connectable=0;fillColor=none;top=0;left=0;bottom=0;right=0;editable=1;overflow=hidden;" vertex="1" parent="G06zANGbgaWx_TJrOBEd-25">
          <mxGeometry width="30" height="30" as="geometry" />
        </mxCell>
        <mxCell id="G06zANGbgaWx_TJrOBEd-27" value="RESPONSES VARCHAR" style="shape=partialRectangle;connectable=0;fillColor=none;top=0;left=0;bottom=0;right=0;align=left;spacingLeft=6;overflow=hidden;" vertex="1" parent="G06zANGbgaWx_TJrOBEd-25">
          <mxGeometry x="30" width="150" height="30" as="geometry" />
        </mxCell>
        <mxCell id="G06zANGbgaWx_TJrOBEd-35" value="Session" style="shape=table;startSize=30;container=1;collapsible=1;childLayout=tableLayout;fixedRows=1;rowLines=0;fontStyle=1;align=center;resizeLast=1;" vertex="1" parent="1">
          <mxGeometry x="335" y="69" width="180" height="100" as="geometry" />
        </mxCell>
        <mxCell id="G06zANGbgaWx_TJrOBEd-36" value="" style="shape=partialRectangle;collapsible=0;dropTarget=0;pointerEvents=0;fillColor=none;top=0;left=0;bottom=1;right=0;points=[[0,0.5],[1,0.5]];portConstraint=eastwest;" vertex="1" parent="G06zANGbgaWx_TJrOBEd-35">
          <mxGeometry y="30" width="180" height="30" as="geometry" />
        </mxCell>
        <mxCell id="G06zANGbgaWx_TJrOBEd-37" value="PK" style="shape=partialRectangle;connectable=0;fillColor=none;top=0;left=0;bottom=0;right=0;fontStyle=1;overflow=hidden;" vertex="1" parent="G06zANGbgaWx_TJrOBEd-36">
          <mxGeometry width="30" height="30" as="geometry" />
        </mxCell>
        <mxCell id="G06zANGbgaWx_TJrOBEd-38" value="session_id" style="shape=partialRectangle;connectable=0;fillColor=none;top=0;left=0;bottom=0;right=0;align=left;spacingLeft=6;fontStyle=5;overflow=hidden;" vertex="1" parent="G06zANGbgaWx_TJrOBEd-36">
          <mxGeometry x="30" width="150" height="30" as="geometry" />
        </mxCell>
        <mxCell id="G06zANGbgaWx_TJrOBEd-39" value="" style="shape=partialRectangle;collapsible=0;dropTarget=0;pointerEvents=0;fillColor=none;top=0;left=0;bottom=0;right=0;points=[[0,0.5],[1,0.5]];portConstraint=eastwest;" vertex="1" parent="G06zANGbgaWx_TJrOBEd-35">
          <mxGeometry y="60" width="180" height="30" as="geometry" />
        </mxCell>
        <mxCell id="G06zANGbgaWx_TJrOBEd-40" value="" style="shape=partialRectangle;connectable=0;fillColor=none;top=0;left=0;bottom=0;right=0;editable=1;overflow=hidden;" vertex="1" parent="G06zANGbgaWx_TJrOBEd-39">
          <mxGeometry width="30" height="30" as="geometry" />
        </mxCell>
        <mxCell id="G06zANGbgaWx_TJrOBEd-41" value="username varchar" style="shape=partialRectangle;connectable=0;fillColor=none;top=0;left=0;bottom=0;right=0;align=left;spacingLeft=6;overflow=hidden;" vertex="1" parent="G06zANGbgaWx_TJrOBEd-39">
          <mxGeometry x="30" width="150" height="30" as="geometry" />
        </mxCell>
        <mxCell id="G06zANGbgaWx_TJrOBEd-44" style="edgeStyle=orthogonalEdgeStyle;rounded=0;orthogonalLoop=1;jettySize=auto;html=1;entryX=-0.006;entryY=0.8;entryDx=0;entryDy=0;entryPerimeter=0;startArrow=ERmany;startFill=0;endArrow=ERoneToMany;endFill=0;" edge="1" parent="1" source="G06zANGbgaWx_TJrOBEd-5" target="G06zANGbgaWx_TJrOBEd-25">
          <mxGeometry relative="1" as="geometry" />
        </mxCell>
      </root>
    </mxGraphModel>
  </diagram>
</mxfile>
